<svg width="237" height="52" viewBox="0 0 237 52" fill="none" xmlns="http://www.w3.org/2000/svg">
<path d="M26 52C40.3594 52 52 40.3594 52 26C52 11.6406 40.3594 0 26 0C11.6406 0 0 11.6406 0 26C0 40.3594 11.6406 52 26 52Z" fill="url(#paint0_linear_826_104)"/>
<path fill-rule="evenodd" clip-rule="evenodd" d="M29.4016 14.6707C29.4016 10.3259 31.6244 9.70312 34.3664 9.70312V29.1001C34.3664 31.3745 33.684 33.4891 32.5128 35.2505H32.7114C36.7421 35.2505 37.6762 37.4746 37.6762 40.2181H23.2549C17.1181 40.2181 12.1433 35.2405 12.1433 29.1001C12.1433 22.96 17.1181 17.9824 23.2549 17.9824C25.5278 17.9824 27.6412 18.6651 29.4016 19.837V14.6707ZM23.2549 35.2505C26.6496 35.2505 29.4016 32.497 29.4016 29.1001C29.4016 25.7035 26.6496 22.9499 23.2549 22.9499C19.8601 22.9499 17.108 25.7035 17.108 29.1001C17.108 32.497 19.8601 35.2505 23.2549 35.2505Z" fill="white"/>
<path fill-rule="evenodd" clip-rule="evenodd" d="M163.126 12.5469C162.712 12.5469 162.376 12.8827 162.376 13.2969V38.2969C162.376 38.7111 162.712 39.0469 163.126 39.0469H165.376C165.79 39.0469 166.126 38.7111 166.126 38.2969V37.3063C167.773 38.6289 169.851 39.4219 172.126 39.4219C177.565 39.4219 181.876 34.889 181.876 29.4219C181.876 23.9547 177.565 19.4219 172.126 19.4219C169.851 19.4219 167.773 20.2148 166.126 21.5374V13.2969C166.126 12.8827 165.79 12.5469 165.376 12.5469H163.126ZM172.126 35.6719C168.867 35.6719 166.126 32.9293 166.126 29.4219C166.126 25.9144 168.867 23.1719 172.126 23.1719C175.385 23.1719 178.126 25.9144 178.126 29.4219C178.126 32.9293 175.385 35.6719 172.126 35.6719Z" fill="#15082B"/>
<path d="M206.876 14.5469L209.639 13.6259C210.124 13.464 210.626 13.8255 210.626 14.3374V19.7969H216.876C217.29 19.7969 217.626 20.1327 217.626 20.5469V22.7969C217.626 23.2111 217.29 23.5469 216.876 23.5469L210.626 23.5469V33.4099C210.626 34.7282 211.694 35.7969 213.013 35.7969C214.12 35.7969 215.205 35.4829 216.142 34.8915C216.408 34.7231 216.761 34.8027 216.929 35.0693L218.627 37.7571L218.144 38.0621C216.608 39.032 214.829 39.5469 213.013 39.5469C209.623 39.5469 206.876 36.7992 206.876 33.4099V14.5469Z" fill="#15082B"/>
<path d="M140.501 31.9219V20.6719C140.501 20.2577 140.837 19.9219 141.251 19.9219H143.501C143.915 19.9219 144.251 20.2577 144.251 20.6719V31.6719C144.251 33.9219 145.986 35.7969 148.126 35.7969H148.376C152.001 35.7969 154.251 32.9165 154.251 29.6719V20.6719C154.251 20.2577 154.587 19.9219 155.001 19.9219H157.251C157.665 19.9219 158.001 20.2577 158.001 20.6719V38.2969C158.001 38.7111 157.665 39.0469 157.251 39.0469H155.001C154.587 39.0469 154.251 38.7111 154.251 38.2969V37.0464C152.625 38.3007 150.588 39.4219 148.376 39.4219H148.126C143.915 39.4219 140.501 36.133 140.501 31.9219Z" fill="#15082B"/>
<path fill-rule="evenodd" clip-rule="evenodd" d="M199.126 37.3063V38.2969C199.126 38.7111 199.462 39.0469 199.876 39.0469H202.126C202.54 39.0469 202.876 38.7111 202.876 38.2969V20.6719C202.876 20.2577 202.54 19.9219 202.126 19.9219H199.876C199.462 19.9219 199.126 20.2577 199.126 20.6719V21.5374C197.478 20.2148 195.401 19.4219 193.126 19.4219C187.686 19.4219 183.376 23.9547 183.376 29.4219C183.376 34.889 187.686 39.4219 193.126 39.4219C195.401 39.4219 197.478 38.6289 199.126 37.3063ZM199.126 29.4219C199.126 25.9144 196.385 23.1719 193.126 23.1719C189.867 23.1719 187.126 25.9144 187.126 29.4219C187.126 32.9293 189.867 35.6719 193.126 35.6719C196.385 35.6719 199.126 32.9293 199.126 29.4219Z" fill="#15082B"/>
<path fill-rule="evenodd" clip-rule="evenodd" d="M73.6257 13.4219C73.6257 13.0077 73.9615 12.6719 74.3757 12.6719H84.3757C91.0722 12.6719 96.5007 18.1004 96.5007 24.7969V26.7969C96.5007 33.4933 91.0722 38.9219 84.3757 38.9219H74.3757C73.9615 38.9219 73.6257 38.5861 73.6257 38.1719V13.4219ZM77.3757 16.4219V35.1719H84.3757C89.0011 35.1719 92.7507 31.4222 92.7507 26.7969V24.7969C92.7507 20.1715 89.0011 16.4219 84.3757 16.4219H77.3757Z" fill="#15082B"/>
<path d="M123.126 29.4219C123.126 25.9144 125.867 23.1719 129.126 23.1719C131.721 23.1719 133.979 24.9003 134.8 27.3856L137.649 26.4437C138.042 26.3136 138.258 25.888 138.099 25.5055C136.624 21.9558 133.185 19.4219 129.126 19.4219C123.686 19.4219 119.376 23.9547 119.376 29.4219C119.376 34.889 123.686 39.4219 129.126 39.4219C133.128 39.4219 136.527 36.9582 138.036 33.4874C138.201 33.1075 137.992 32.6785 137.601 32.5421L134.768 31.5547C133.919 33.9886 131.687 35.6719 129.126 35.6719C125.867 35.6719 123.126 32.9293 123.126 29.4219Z" fill="#15082B"/>
<path fill-rule="evenodd" clip-rule="evenodd" d="M102.64 31.0469H117.376C117.376 31.0469 117.626 30.0469 117.626 29.1719C117.626 23.7924 113.898 19.4219 108.376 19.4219C103.013 19.4219 98.6257 23.6275 98.6257 29.1719C98.6257 34.5637 102.865 39.4219 108.376 39.4219C109.705 39.4219 111.119 39.362 112.638 38.8342C114.114 38.3211 115.554 37.4157 117.126 35.9442C117.126 35.9442 115.934 34.4968 115.199 33.6353C114.93 33.3202 114.463 33.3067 114.151 33.5793C113.054 34.5387 112.175 35.025 111.406 35.2921C110.501 35.6067 109.603 35.6719 108.376 35.6719C105.768 35.6719 103.411 33.7192 102.64 31.0469ZM108.376 23.1719C105.683 23.1719 103.428 24.8466 102.658 27.2969H113.644C112.982 24.7652 110.961 23.1719 108.376 23.1719Z" fill="#15082B"/>
<path fill-rule="evenodd" clip-rule="evenodd" d="M222.015 31.0469H236.751C236.751 31.0469 237.001 30.0469 237.001 29.1719C237.001 23.7924 233.273 19.4219 227.751 19.4219C222.388 19.4219 218.001 23.6275 218.001 29.1719C218.001 34.5637 222.24 39.4219 227.751 39.4219C229.08 39.4219 230.494 39.362 232.013 38.8342C233.489 38.3211 234.929 37.4157 236.501 35.9442C236.501 35.9442 235.309 34.4968 234.574 33.6353C234.305 33.3202 233.838 33.3067 233.526 33.5793C232.429 34.5387 231.55 35.025 230.781 35.2921C229.876 35.6067 228.978 35.6719 227.751 35.6719C225.143 35.6719 222.786 33.7192 222.015 31.0469ZM227.751 23.1719C225.058 23.1719 222.803 24.8466 222.033 27.2969H233.019C232.357 24.7652 230.336 23.1719 227.751 23.1719Z" fill="#15082B"/>
<defs>
<linearGradient id="paint0_linear_826_104" x1="7.8" y1="44.2" x2="44.5799" y2="7.42" gradientUnits="userSpaceOnUse">
<stop stop-color="#C91857"/>
<stop offset="1" stop-color="#3F0C78"/>
</linearGradient>
</defs>
</svg>
